# xmcd CD database file
#
# Track frame offsets:
#	150
#	19920
#	33585
#	53355
#
# Disc length: 895 seconds
#
# Revision: 0
# Processed by: cddbd v1.5.1PL2 Copyright (c) Steve Scherf et al.
# Submitted via: CDex 1.51
#
DISCID=27037d04
DTITLE=玉置浩二 - いつもどこかで(Single)
DYEAR=2005
DGENRE=J-POP
TTITLE0=いつもどこかで
TTITLE1=発散だー!!
TTITLE2=いつもどこかで(Instrumental)
TTITLE3=発散だー!!(Instrumental)
EXTD=YEAR: 2005
EXTT0=
EXTT1=
EXTT2=
EXTT3=
PLAYORDER=
